solid OpenSCAD_Model
  facet normal 0 0 -1
    outer loop
      vertex -20 6 0
      vertex 20 6 0
      vertex 9.38196 1.9021 0
    endloop
  endfacet
  facet normal -0 -0 -1
    outer loop
      vertex 10.209 -1.98903 0
      vertex 20 -6 0
      vertex 9.79094 -1.98903 0
    endloop
  endfacet
  facet normal 0 0 -1
    outer loop
      vertex 20 -6 0
      vertex 10.209 -1.98903 0
      vertex 10.618 -1.9021 0
    endloop
  endfacet
  facet normal 0 0 -1
    outer loop
      vertex 10.209 1.98903 0
      vertex 20 6 0
      vertex 10.618 1.9021 0
    endloop
  endfacet
  facet normal -0 -0 -1
    outer loop
      vertex 9.79094 -1.98903 0
      vertex 20 -6 0
      vertex 9.38196 -1.9021 0
    endloop
  endfacet
  facet normal -0 0 -1
    outer loop
      vertex 9 -1.73204 0
      vertex -9.38196 -1.9021 0
      vertex -9 -1.73204 0
    endloop
  endfacet
  facet normal 0 -0 -1
    outer loop
      vertex 9.38196 -1.9021 0
      vertex 20 -6 0
      vertex -20 -6 0
    endloop
  endfacet
  facet normal 0 0 -1
    outer loop
      vertex 8.66173 -1.48628 0
      vertex -8.66173 -1.48628 0
      vertex 8.38196 -1.17557 0
    endloop
  endfacet
  facet normal 0 0 -1
    outer loop
      vertex -8.38196 -1.17557 0
      vertex -8.1729 -0.813461 0
      vertex 8.1729 -0.813461 0
    endloop
  endfacet
  facet normal 0 0 -1
    outer loop
      vertex -8.0437 -0.415817 0
      vertex 8 0 0
      vertex 8.0437 -0.415817 0
    endloop
  endfacet
  facet normal 0 0 -1
    outer loop
      vertex -8.0437 0.415817 0
      vertex 8.0437 0.415817 0
      vertex 8 0 0
    endloop
  endfacet
  facet normal 0 0 -1
    outer loop
      vertex -8.38196 1.17557 0
      vertex 8.1729 0.813461 0
      vertex -8.1729 0.813461 0
    endloop
  endfacet
  facet normal -0 0 -1
    outer loop
      vertex 8.66173 1.48628 0
      vertex 8.38196 1.17557 0
      vertex -8.66173 1.48628 0
    endloop
  endfacet
  facet normal 0 0 -1
    outer loop
      vertex -9 1.73204 0
      vertex 8.66173 1.48628 0
      vertex -8.66173 1.48628 0
    endloop
  endfacet
  facet normal 0 0 -1
    outer loop
      vertex -9 1.73204 0
      vertex 9 1.73204 0
      vertex 8.66173 1.48628 0
    endloop
  endfacet
  facet normal 0 0 -1
    outer loop
      vertex -9 1.73204 0
      vertex -9.38196 1.9021 0
      vertex 9 1.73204 0
    endloop
  endfacet
  facet normal 0 0 -1
    outer loop
      vertex 9 1.73204 0
      vertex -9.38196 1.9021 0
      vertex 9.38196 1.9021 0
    endloop
  endfacet
  facet normal 0 0 -1
    outer loop
      vertex 9.38196 1.9021 0
      vertex -9.38196 1.9021 0
      vertex -20 6 0
    endloop
  endfacet
  facet normal 0 0 -1
    outer loop
      vertex -20 6 0
      vertex -9.38196 1.9021 0
      vertex -9.79094 1.98903 0
    endloop
  endfacet
  facet normal 0 0 -1
    outer loop
      vertex 20 6 0
      vertex 9.79094 1.98903 0
      vertex 9.38196 1.9021 0
    endloop
  endfacet
  facet normal 0 0 -1
    outer loop
      vertex 20 6 0
      vertex 10.209 1.98903 0
      vertex 9.79094 1.98903 0
    endloop
  endfacet
  facet normal 0 0 -1
    outer loop
      vertex 10.618 1.9021 0
      vertex 20 6 0
      vertex 11 1.73204 0
    endloop
  endfacet
  facet normal 0 0 -1
    outer loop
      vertex 11 1.73204 0
      vertex 20 6 0
      vertex 11.3383 1.48628 0
    endloop
  endfacet
  facet normal 0 0 -1
    outer loop
      vertex 11.3383 1.48628 0
      vertex 20 6 0
      vertex 11.618 1.17557 0
    endloop
  endfacet
  facet normal 0 0 -1
    outer loop
      vertex 11.8271 0.813461 0
      vertex 11.618 1.17557 0
      vertex 20 6 0
    endloop
  endfacet
  facet normal 0 0 -1
    outer loop
      vertex 11.9563 0.415817 0
      vertex 11.8271 0.813461 0
      vertex 20 6 0
    endloop
  endfacet
  facet normal 0 0 -1
    outer loop
      vertex 12 0 0
      vertex 11.9563 0.415817 0
      vertex 20 6 0
    endloop
  endfacet
  facet normal 0 0 -1
    outer loop
      vertex 20 -6 0
      vertex 12 0 0
      vertex 20 6 0
    endloop
  endfacet
  facet normal 0 0 -1
    outer loop
      vertex 20 -6 0
      vertex 11.9563 -0.415817 0
      vertex 12 0 0
    endloop
  endfacet
  facet normal 0 0 -1
    outer loop
      vertex 20 -6 0
      vertex 11.8271 -0.813461 0
      vertex 11.9563 -0.415817 0
    endloop
  endfacet
  facet normal 0 0 -1
    outer loop
      vertex 20 -6 0
      vertex 11.618 -1.17557 0
      vertex 11.8271 -0.813461 0
    endloop
  endfacet
  facet normal 0 0 -1
    outer loop
      vertex 20 -6 0
      vertex 11.3383 -1.48628 0
      vertex 11.618 -1.17557 0
    endloop
  endfacet
  facet normal 0 0 -1
    outer loop
      vertex 20 -6 0
      vertex 11 -1.73204 0
      vertex 11.3383 -1.48628 0
    endloop
  endfacet
  facet normal 0 0 -1
    outer loop
      vertex 20 -6 0
      vertex 10.618 -1.9021 0
      vertex 11 -1.73204 0
    endloop
  endfacet
  facet normal 0 0 -1
    outer loop
      vertex -20 -6 0
      vertex -9.79094 -1.98903 0
      vertex -9.38196 -1.9021 0
    endloop
  endfacet
  facet normal 0 -0 -1
    outer loop
      vertex -9.38196 -1.9021 0
      vertex 9.38196 -1.9021 0
      vertex -20 -6 0
    endloop
  endfacet
  facet normal 0 -0 -1
    outer loop
      vertex -10.209 -1.98903 0
      vertex -9.79094 -1.98903 0
      vertex -20 -6 0
    endloop
  endfacet
  facet normal 0 -0 -1
    outer loop
      vertex -10.618 -1.9021 0
      vertex -10.209 -1.98903 0
      vertex -20 -6 0
    endloop
  endfacet
  facet normal 0 -0 -1
    outer loop
      vertex -11 -1.73204 0
      vertex -10.618 -1.9021 0
      vertex -20 -6 0
    endloop
  endfacet
  facet normal 0 -0 -1
    outer loop
      vertex -11.618 -1.17557 0
      vertex -11.3383 -1.48628 0
      vertex -20 -6 0
    endloop
  endfacet
  facet normal 0 -0 -1
    outer loop
      vertex -11.3383 -1.48628 0
      vertex -11 -1.73204 0
      vertex -20 -6 0
    endloop
  endfacet
  facet normal 0 -0 -1
    outer loop
      vertex -11.8271 -0.813461 0
      vertex -11.618 -1.17557 0
      vertex -20 -6 0
    endloop
  endfacet
  facet normal 0 -0 -1
    outer loop
      vertex -11.9563 -0.415817 0
      vertex -11.8271 -0.813461 0
      vertex -20 -6 0
    endloop
  endfacet
  facet normal 0 -0 -1
    outer loop
      vertex -12 0 0
      vertex -11.9563 -0.415817 0
      vertex -20 -6 0
    endloop
  endfacet
  facet normal 0 0 -1
    outer loop
      vertex -20 6 0
      vertex -12 0 0
      vertex -20 -6 0
    endloop
  endfacet
  facet normal 0 0 -1
    outer loop
      vertex -20 6 0
      vertex -11.9563 0.415817 0
      vertex -12 0 0
    endloop
  endfacet
  facet normal 0 0 -1
    outer loop
      vertex -20 6 0
      vertex -11.8271 0.813461 0
      vertex -11.9563 0.415817 0
    endloop
  endfacet
  facet normal 0 0 -1
    outer loop
      vertex -20 6 0
      vertex -11.618 1.17557 0
      vertex -11.8271 0.813461 0
    endloop
  endfacet
  facet normal 0 0 -1
    outer loop
      vertex -20 6 0
      vertex -11.3383 1.48628 0
      vertex -11.618 1.17557 0
    endloop
  endfacet
  facet normal 0 0 -1
    outer loop
      vertex -20 6 0
      vertex -11 1.73204 0
      vertex -11.3383 1.48628 0
    endloop
  endfacet
  facet normal 0 0 -1
    outer loop
      vertex -20 6 0
      vertex -10.618 1.9021 0
      vertex -11 1.73204 0
    endloop
  endfacet
  facet normal 0 0 -1
    outer loop
      vertex -20 6 0
      vertex -10.209 1.98903 0
      vertex -10.618 1.9021 0
    endloop
  endfacet
  facet normal 0 0 -1
    outer loop
      vertex -20 6 0
      vertex -9.79094 1.98903 0
      vertex -10.209 1.98903 0
    endloop
  endfacet
  facet normal 0 0 -1
    outer loop
      vertex 8.38196 1.17557 0
      vertex -8.38196 1.17557 0
      vertex -8.66173 1.48628 0
    endloop
  endfacet
  facet normal -0 0 -1
    outer loop
      vertex 8.38196 1.17557 0
      vertex 8.1729 0.813461 0
      vertex -8.38196 1.17557 0
    endloop
  endfacet
  facet normal -0 0 -1
    outer loop
      vertex 8.1729 0.813461 0
      vertex 8.0437 0.415817 0
      vertex -8.1729 0.813461 0
    endloop
  endfacet
  facet normal 0 0 -1
    outer loop
      vertex -8.1729 0.813461 0
      vertex 8.0437 0.415817 0
      vertex -8.0437 0.415817 0
    endloop
  endfacet
  facet normal 0 0 -1
    outer loop
      vertex -8.0437 0.415817 0
      vertex 8 0 0
      vertex -8 0 0
    endloop
  endfacet
  facet normal 0 -0 -1
    outer loop
      vertex -8 0 0
      vertex 8 0 0
      vertex -8.0437 -0.415817 0
    endloop
  endfacet
  facet normal 0 -0 -1
    outer loop
      vertex -8.0437 -0.415817 0
      vertex 8.0437 -0.415817 0
      vertex -8.1729 -0.813461 0
    endloop
  endfacet
  facet normal 0 0 -1
    outer loop
      vertex -8.1729 -0.813461 0
      vertex 8.0437 -0.415817 0
      vertex 8.1729 -0.813461 0
    endloop
  endfacet
  facet normal 0 0 -1
    outer loop
      vertex -8.38196 -1.17557 0
      vertex 8.1729 -0.813461 0
      vertex 8.38196 -1.17557 0
    endloop
  endfacet
  facet normal 0 0 -1
    outer loop
      vertex -8.66173 -1.48628 0
      vertex -8.38196 -1.17557 0
      vertex 8.38196 -1.17557 0
    endloop
  endfacet
  facet normal 0 0 -1
    outer loop
      vertex -9 -1.73204 0
      vertex -8.66173 -1.48628 0
      vertex 8.66173 -1.48628 0
    endloop
  endfacet
  facet normal 0 0 -1
    outer loop
      vertex 9 -1.73204 0
      vertex -9 -1.73204 0
      vertex 8.66173 -1.48628 0
    endloop
  endfacet
  facet normal 0 0 -1
    outer loop
      vertex 9.38196 -1.9021 0
      vertex -9.38196 -1.9021 0
      vertex 9 -1.73204 0
    endloop
  endfacet
  facet normal 0 -0 1
    outer loop
      vertex 9.38196 1.9021 4
      vertex 20 6 4
      vertex -20 6 4
    endloop
  endfacet
  facet normal -0 0 1
    outer loop
      vertex 9.79094 -1.98903 4
      vertex 20 -6 4
      vertex 10.209 -1.98903 4
    endloop
  endfacet
  facet normal 0 0 1
    outer loop
      vertex 10.618 -1.9021 4
      vertex 10.209 -1.98903 4
      vertex 20 -6 4
    endloop
  endfacet
  facet normal 0 -0 1
    outer loop
      vertex 10.618 1.9021 4
      vertex 20 6 4
      vertex 10.209 1.98903 4
    endloop
  endfacet
  facet normal 0 0 1
    outer loop
      vertex 9.38196 -1.9021 4
      vertex 20 -6 4
      vertex 9.79094 -1.98903 4
    endloop
  endfacet
  facet normal -0 0 1
    outer loop
      vertex -9 -1.73204 4
      vertex -9.38196 -1.9021 4
      vertex 9 -1.73204 4
    endloop
  endfacet
  facet normal 0 0 1
    outer loop
      vertex -20 -6 4
      vertex 20 -6 4
      vertex 9.38196 -1.9021 4
    endloop
  endfacet
  facet normal 0 0 1
    outer loop
      vertex 8.38196 -1.17557 4
      vertex -8.66173 -1.48628 4
      vertex 8.66173 -1.48628 4
    endloop
  endfacet
  facet normal 0 0 1
    outer loop
      vertex 8.1729 -0.813461 4
      vertex -8.1729 -0.813461 4
      vertex -8.38196 -1.17557 4
    endloop
  endfacet
  facet normal 0 0 1
    outer loop
      vertex 8.0437 -0.415817 4
      vertex 8 0 4
      vertex -8.0437 -0.415817 4
    endloop
  endfacet
  facet normal 0 -0 1
    outer loop
      vertex 8 0 4
      vertex 8.0437 0.415817 4
      vertex -8.0437 0.415817 4
    endloop
  endfacet
  facet normal 0 -0 1
    outer loop
      vertex -8.1729 0.813461 4
      vertex 8.1729 0.813461 4
      vertex -8.38196 1.17557 4
    endloop
  endfacet
  facet normal -0 0 1
    outer loop
      vertex -8.66173 1.48628 4
      vertex 8.38196 1.17557 4
      vertex 8.66173 1.48628 4
    endloop
  endfacet
  facet normal 0 -0 1
    outer loop
      vertex -8.66173 1.48628 4
      vertex 8.66173 1.48628 4
      vertex -9 1.73204 4
    endloop
  endfacet
  facet normal 0 -0 1
    outer loop
      vertex 8.66173 1.48628 4
      vertex 9 1.73204 4
      vertex -9 1.73204 4
    endloop
  endfacet
  facet normal 0 0 1
    outer loop
      vertex 9 1.73204 4
      vertex -9.38196 1.9021 4
      vertex -9 1.73204 4
    endloop
  endfacet
  facet normal 0 0 1
    outer loop
      vertex 9.38196 1.9021 4
      vertex -9.38196 1.9021 4
      vertex 9 1.73204 4
    endloop
  endfacet
  facet normal 0 0 1
    outer loop
      vertex -20 6 4
      vertex -9.38196 1.9021 4
      vertex 9.38196 1.9021 4
    endloop
  endfacet
  facet normal -0 -0 1
    outer loop
      vertex -9.79094 1.98903 4
      vertex -9.38196 1.9021 4
      vertex -20 6 4
    endloop
  endfacet
  facet normal 0 0 1
    outer loop
      vertex 9.38196 1.9021 4
      vertex 9.79094 1.98903 4
      vertex 20 6 4
    endloop
  endfacet
  facet normal 0 0 1
    outer loop
      vertex 9.79094 1.98903 4
      vertex 10.209 1.98903 4
      vertex 20 6 4
    endloop
  endfacet
  facet normal 0 -0 1
    outer loop
      vertex 11 1.73204 4
      vertex 20 6 4
      vertex 10.618 1.9021 4
    endloop
  endfacet
  facet normal 0 -0 1
    outer loop
      vertex 11.3383 1.48628 4
      vertex 20 6 4
      vertex 11 1.73204 4
    endloop
  endfacet
  facet normal 0 -0 1
    outer loop
      vertex 11.618 1.17557 4
      vertex 20 6 4
      vertex 11.3383 1.48628 4
    endloop
  endfacet
  facet normal 0 0 1
    outer loop
      vertex 20 6 4
      vertex 11.618 1.17557 4
      vertex 11.8271 0.813461 4
    endloop
  endfacet
  facet normal 0 0 1
    outer loop
      vertex 20 6 4
      vertex 11.8271 0.813461 4
      vertex 11.9563 0.415817 4
    endloop
  endfacet
  facet normal 0 0 1
    outer loop
      vertex 20 6 4
      vertex 11.9563 0.415817 4
      vertex 12 0 4
    endloop
  endfacet
  facet normal 0 0 1
    outer loop
      vertex 20 6 4
      vertex 12 0 4
      vertex 20 -6 4
    endloop
  endfacet
  facet normal 0 0 1
    outer loop
      vertex 12 0 4
      vertex 11.9563 -0.415817 4
      vertex 20 -6 4
    endloop
  endfacet
  facet normal 0 0 1
    outer loop
      vertex 11.9563 -0.415817 4
      vertex 11.8271 -0.813461 4
      vertex 20 -6 4
    endloop
  endfacet
  facet normal 0 0 1
    outer loop
      vertex 11.8271 -0.813461 4
      vertex 11.618 -1.17557 4
      vertex 20 -6 4
    endloop
  endfacet
  facet normal 0 0 1
    outer loop
      vertex 11.618 -1.17557 4
      vertex 11.3383 -1.48628 4
      vertex 20 -6 4
    endloop
  endfacet
  facet normal 0 0 1
    outer loop
      vertex 11.3383 -1.48628 4
      vertex 11 -1.73204 4
      vertex 20 -6 4
    endloop
  endfacet
  facet normal 0 0 1
    outer loop
      vertex 11 -1.73204 4
      vertex 10.618 -1.9021 4
      vertex 20 -6 4
    endloop
  endfacet
  facet normal 0 0 1
    outer loop
      vertex -9.38196 -1.9021 4
      vertex -9.79094 -1.98903 4
      vertex -20 -6 4
    endloop
  endfacet
  facet normal 0 0 1
    outer loop
      vertex -20 -6 4
      vertex 9.38196 -1.9021 4
      vertex -9.38196 -1.9021 4
    endloop
  endfacet
  facet normal 0 0 1
    outer loop
      vertex -20 -6 4
      vertex -9.79094 -1.98903 4
      vertex -10.209 -1.98903 4
    endloop
  endfacet
  facet normal 0 0 1
    outer loop
      vertex -20 -6 4
      vertex -10.209 -1.98903 4
      vertex -10.618 -1.9021 4
    endloop
  endfacet
  facet normal 0 0 1
    outer loop
      vertex -20 -6 4
      vertex -10.618 -1.9021 4
      vertex -11 -1.73204 4
    endloop
  endfacet
  facet normal 0 0 1
    outer loop
      vertex -20 -6 4
      vertex -11.3383 -1.48628 4
      vertex -11.618 -1.17557 4
    endloop
  endfacet
  facet normal 0 0 1
    outer loop
      vertex -20 -6 4
      vertex -11 -1.73204 4
      vertex -11.3383 -1.48628 4
    endloop
  endfacet
  facet normal 0 0 1
    outer loop
      vertex -20 -6 4
      vertex -11.618 -1.17557 4
      vertex -11.8271 -0.813461 4
    endloop
  endfacet
  facet normal 0 0 1
    outer loop
      vertex -20 -6 4
      vertex -11.8271 -0.813461 4
      vertex -11.9563 -0.415817 4
    endloop
  endfacet
  facet normal 0 0 1
    outer loop
      vertex -20 -6 4
      vertex -11.9563 -0.415817 4
      vertex -12 0 4
    endloop
  endfacet
  facet normal 0 0 1
    outer loop
      vertex -20 -6 4
      vertex -12 0 4
      vertex -20 6 4
    endloop
  endfacet
  facet normal 0 -0 1
    outer loop
      vertex -12 0 4
      vertex -11.9563 0.415817 4
      vertex -20 6 4
    endloop
  endfacet
  facet normal 0 -0 1
    outer loop
      vertex -11.9563 0.415817 4
      vertex -11.8271 0.813461 4
      vertex -20 6 4
    endloop
  endfacet
  facet normal 0 -0 1
    outer loop
      vertex -11.8271 0.813461 4
      vertex -11.618 1.17557 4
      vertex -20 6 4
    endloop
  endfacet
  facet normal 0 -0 1
    outer loop
      vertex -11.618 1.17557 4
      vertex -11.3383 1.48628 4
      vertex -20 6 4
    endloop
  endfacet
  facet normal 0 -0 1
    outer loop
      vertex -11.3383 1.48628 4
      vertex -11 1.73204 4
      vertex -20 6 4
    endloop
  endfacet
  facet normal 0 -0 1
    outer loop
      vertex -11 1.73204 4
      vertex -10.618 1.9021 4
      vertex -20 6 4
    endloop
  endfacet
  facet normal 0 -0 1
    outer loop
      vertex -10.618 1.9021 4
      vertex -10.209 1.98903 4
      vertex -20 6 4
    endloop
  endfacet
  facet normal 0 -0 1
    outer loop
      vertex -10.209 1.98903 4
      vertex -9.79094 1.98903 4
      vertex -20 6 4
    endloop
  endfacet
  facet normal 0 0 1
    outer loop
      vertex -8.66173 1.48628 4
      vertex -8.38196 1.17557 4
      vertex 8.38196 1.17557 4
    endloop
  endfacet
  facet normal -0 0 1
    outer loop
      vertex -8.38196 1.17557 4
      vertex 8.1729 0.813461 4
      vertex 8.38196 1.17557 4
    endloop
  endfacet
  facet normal -0 0 1
    outer loop
      vertex -8.1729 0.813461 4
      vertex 8.0437 0.415817 4
      vertex 8.1729 0.813461 4
    endloop
  endfacet
  facet normal 0 -0 1
    outer loop
      vertex -8.0437 0.415817 4
      vertex 8.0437 0.415817 4
      vertex -8.1729 0.813461 4
    endloop
  endfacet
  facet normal 0 -0 1
    outer loop
      vertex -8 0 4
      vertex 8 0 4
      vertex -8.0437 0.415817 4
    endloop
  endfacet
  facet normal 0 0 1
    outer loop
      vertex -8.0437 -0.415817 4
      vertex 8 0 4
      vertex -8 0 4
    endloop
  endfacet
  facet normal 0 0 1
    outer loop
      vertex -8.1729 -0.813461 4
      vertex 8.0437 -0.415817 4
      vertex -8.0437 -0.415817 4
    endloop
  endfacet
  facet normal 0 0 1
    outer loop
      vertex 8.1729 -0.813461 4
      vertex 8.0437 -0.415817 4
      vertex -8.1729 -0.813461 4
    endloop
  endfacet
  facet normal 0 0 1
    outer loop
      vertex 8.38196 -1.17557 4
      vertex 8.1729 -0.813461 4
      vertex -8.38196 -1.17557 4
    endloop
  endfacet
  facet normal 0 0 1
    outer loop
      vertex 8.38196 -1.17557 4
      vertex -8.38196 -1.17557 4
      vertex -8.66173 -1.48628 4
    endloop
  endfacet
  facet normal 0 0 1
    outer loop
      vertex 8.66173 -1.48628 4
      vertex -8.66173 -1.48628 4
      vertex -9 -1.73204 4
    endloop
  endfacet
  facet normal 0 0 1
    outer loop
      vertex 8.66173 -1.48628 4
      vertex -9 -1.73204 4
      vertex 9 -1.73204 4
    endloop
  endfacet
  facet normal 0 0 1
    outer loop
      vertex 9 -1.73204 4
      vertex -9.38196 -1.9021 4
      vertex 9.38196 -1.9021 4
    endloop
  endfacet
  facet normal 0 1 0
    outer loop
      vertex -20 6 0
      vertex 20 6 4
      vertex 20 6 0
    endloop
  endfacet
  facet normal 0 1 0
    outer loop
      vertex -20 6 0
      vertex -20 6 4
      vertex 20 6 4
    endloop
  endfacet
  facet normal -1 0 0
    outer loop
      vertex -20 -6 0
      vertex -20 6 4
      vertex -20 6 0
    endloop
  endfacet
  facet normal -1 0 0
    outer loop
      vertex -20 -6 0
      vertex -20 -6 4
      vertex -20 6 4
    endloop
  endfacet
  facet normal 0 -1 0
    outer loop
      vertex 20 -6 0
      vertex -20 -6 4
      vertex -20 -6 0
    endloop
  endfacet
  facet normal 0 -1 0
    outer loop
      vertex 20 -6 0
      vertex 20 -6 4
      vertex -20 -6 4
    endloop
  endfacet
  facet normal 1 0 0
    outer loop
      vertex 20 6 0
      vertex 20 -6 4
      vertex 20 -6 0
    endloop
  endfacet
  facet normal 1 0 -0
    outer loop
      vertex 20 6 0
      vertex 20 6 4
      vertex 20 -6 4
    endloop
  endfacet
  facet normal 0.207909 0.978148 -0
    outer loop
      vertex 9.38196 -1.9021 0
      vertex 9.38196 -1.9021 4
      vertex 9.79094 -1.98903 0
    endloop
  endfacet
  facet normal 0.207909 0.978148 0
    outer loop
      vertex 9.79094 -1.98903 4
      vertex 9.79094 -1.98903 0
      vertex 9.38196 -1.9021 4
    endloop
  endfacet
  facet normal 0.406738 0.913545 -0
    outer loop
      vertex 9 -1.73204 0
      vertex 9 -1.73204 4
      vertex 9.38196 -1.9021 0
    endloop
  endfacet
  facet normal 0.406738 0.913545 0
    outer loop
      vertex 9.38196 -1.9021 4
      vertex 9.38196 -1.9021 0
      vertex 9 -1.73204 4
    endloop
  endfacet
  facet normal 0.587773 0.809026 -0
    outer loop
      vertex 8.66173 -1.48628 0
      vertex 8.66173 -1.48628 4
      vertex 9 -1.73204 0
    endloop
  endfacet
  facet normal 0.587773 0.809026 0
    outer loop
      vertex 9 -1.73204 4
      vertex 9 -1.73204 0
      vertex 8.66173 -1.48628 4
    endloop
  endfacet
  facet normal 0.743138 0.669138 -0
    outer loop
      vertex 8.38196 -1.17557 0
      vertex 8.38196 -1.17557 4
      vertex 8.66173 -1.48628 0
    endloop
  endfacet
  facet normal 0.743138 0.669138 0
    outer loop
      vertex 8.66173 -1.48628 4
      vertex 8.66173 -1.48628 0
      vertex 8.38196 -1.17557 4
    endloop
  endfacet
  facet normal 0.866029 0.499993 -0
    outer loop
      vertex 8.1729 -0.813461 0
      vertex 8.1729 -0.813461 4
      vertex 8.38196 -1.17557 0
    endloop
  endfacet
  facet normal 0.866029 0.499993 0
    outer loop
      vertex 8.38196 -1.17557 4
      vertex 8.38196 -1.17557 0
      vertex 8.1729 -0.813461 4
    endloop
  endfacet
  facet normal 0.951058 0.309012 -0
    outer loop
      vertex 8.0437 -0.415817 0
      vertex 8.0437 -0.415817 4
      vertex 8.1729 -0.813461 0
    endloop
  endfacet
  facet normal 0.951058 0.309012 0
    outer loop
      vertex 8.1729 -0.813461 4
      vertex 8.1729 -0.813461 0
      vertex 8.0437 -0.415817 4
    endloop
  endfacet
  facet normal 0.994523 0.104519 -0
    outer loop
      vertex 8 0 0
      vertex 8 0 4
      vertex 8.0437 -0.415817 0
    endloop
  endfacet
  facet normal 0.994523 0.104519 0
    outer loop
      vertex 8.0437 -0.415817 4
      vertex 8.0437 -0.415817 0
      vertex 8 0 4
    endloop
  endfacet
  facet normal 0.994523 -0.104519 0
    outer loop
      vertex 8.0437 0.415817 0
      vertex 8.0437 0.415817 4
      vertex 8 0 0
    endloop
  endfacet
  facet normal 0.994523 -0.104519 0
    outer loop
      vertex 8 0 4
      vertex 8 0 0
      vertex 8.0437 0.415817 4
    endloop
  endfacet
  facet normal 0.951058 -0.309012 0
    outer loop
      vertex 8.1729 0.813461 0
      vertex 8.1729 0.813461 4
      vertex 8.0437 0.415817 0
    endloop
  endfacet
  facet normal 0.951058 -0.309012 0
    outer loop
      vertex 8.0437 0.415817 4
      vertex 8.0437 0.415817 0
      vertex 8.1729 0.813461 4
    endloop
  endfacet
  facet normal 0.866029 -0.499993 0
    outer loop
      vertex 8.38196 1.17557 0
      vertex 8.38196 1.17557 4
      vertex 8.1729 0.813461 0
    endloop
  endfacet
  facet normal 0.866029 -0.499993 0
    outer loop
      vertex 8.1729 0.813461 4
      vertex 8.1729 0.813461 0
      vertex 8.38196 1.17557 4
    endloop
  endfacet
  facet normal 0.743138 -0.669138 0
    outer loop
      vertex 8.66173 1.48628 0
      vertex 8.66173 1.48628 4
      vertex 8.38196 1.17557 0
    endloop
  endfacet
  facet normal 0.743138 -0.669138 0
    outer loop
      vertex 8.38196 1.17557 4
      vertex 8.38196 1.17557 0
      vertex 8.66173 1.48628 4
    endloop
  endfacet
  facet normal 0.587773 -0.809026 0
    outer loop
      vertex 9 1.73204 0
      vertex 9 1.73204 4
      vertex 8.66173 1.48628 0
    endloop
  endfacet
  facet normal 0.587773 -0.809026 0
    outer loop
      vertex 8.66173 1.48628 4
      vertex 8.66173 1.48628 0
      vertex 9 1.73204 4
    endloop
  endfacet
  facet normal 0.406738 -0.913545 0
    outer loop
      vertex 9.38196 1.9021 0
      vertex 9.38196 1.9021 4
      vertex 9 1.73204 0
    endloop
  endfacet
  facet normal 0.406738 -0.913545 0
    outer loop
      vertex 9 1.73204 4
      vertex 9 1.73204 0
      vertex 9.38196 1.9021 4
    endloop
  endfacet
  facet normal 0.207909 -0.978148 0
    outer loop
      vertex 9.79094 1.98903 0
      vertex 9.79094 1.98903 4
      vertex 9.38196 1.9021 0
    endloop
  endfacet
  facet normal 0.207909 -0.978148 0
    outer loop
      vertex 9.38196 1.9021 4
      vertex 9.38196 1.9021 0
      vertex 9.79094 1.98903 4
    endloop
  endfacet
  facet normal 0 -1 0
    outer loop
      vertex 10.209 1.98903 0
      vertex 10.209 1.98903 4
      vertex 9.79094 1.98903 0
    endloop
  endfacet
  facet normal 0 -1 0
    outer loop
      vertex 9.79094 1.98903 4
      vertex 9.79094 1.98903 0
      vertex 10.209 1.98903 4
    endloop
  endfacet
  facet normal -0.207899 -0.97815 0
    outer loop
      vertex 10.618 1.9021 0
      vertex 10.618 1.9021 4
      vertex 10.209 1.98903 0
    endloop
  endfacet
  facet normal -0.207899 -0.97815 -0
    outer loop
      vertex 10.209 1.98903 4
      vertex 10.209 1.98903 0
      vertex 10.618 1.9021 4
    endloop
  endfacet
  facet normal -0.406702 -0.913561 0
    outer loop
      vertex 11 1.73204 0
      vertex 11 1.73204 4
      vertex 10.618 1.9021 0
    endloop
  endfacet
  facet normal -0.406702 -0.913561 -0
    outer loop
      vertex 10.618 1.9021 4
      vertex 10.618 1.9021 0
      vertex 11 1.73204 4
    endloop
  endfacet
  facet normal -0.587739 -0.80905 0
    outer loop
      vertex 11.3383 1.48628 0
      vertex 11.3383 1.48628 4
      vertex 11 1.73204 0
    endloop
  endfacet
  facet normal -0.587739 -0.80905 -0
    outer loop
      vertex 11 1.73204 4
      vertex 11 1.73204 0
      vertex 11.3383 1.48628 4
    endloop
  endfacet
  facet normal -0.743222 -0.669045 0
    outer loop
      vertex 11.618 1.17557 0
      vertex 11.618 1.17557 4
      vertex 11.3383 1.48628 0
    endloop
  endfacet
  facet normal -0.743222 -0.669045 -0
    outer loop
      vertex 11.3383 1.48628 4
      vertex 11.3383 1.48628 0
      vertex 11.618 1.17557 4
    endloop
  endfacet
  facet normal -0.865988 -0.500065 0
    outer loop
      vertex 11.8271 0.813461 0
      vertex 11.8271 0.813461 4
      vertex 11.618 1.17557 0
    endloop
  endfacet
  facet normal -0.865988 -0.500065 -0
    outer loop
      vertex 11.618 1.17557 4
      vertex 11.618 1.17557 0
      vertex 11.8271 0.813461 4
    endloop
  endfacet
  facet normal -0.951058 -0.309012 0
    outer loop
      vertex 11.9563 0.415817 0
      vertex 11.9563 0.415817 4
      vertex 11.8271 0.813461 0
    endloop
  endfacet
  facet normal -0.951058 -0.309012 -0
    outer loop
      vertex 11.8271 0.813461 4
      vertex 11.8271 0.813461 0
      vertex 11.9563 0.415817 4
    endloop
  endfacet
  facet normal -0.994523 -0.104519 0
    outer loop
      vertex 12 0 0
      vertex 12 0 4
      vertex 11.9563 0.415817 0
    endloop
  endfacet
  facet normal -0.994523 -0.104519 -0
    outer loop
      vertex 11.9563 0.415817 4
      vertex 11.9563 0.415817 0
      vertex 12 0 4
    endloop
  endfacet
  facet normal -0.994523 0.104519 0
    outer loop
      vertex 11.9563 -0.415817 0
      vertex 11.9563 -0.415817 4
      vertex 12 0 0
    endloop
  endfacet
  facet normal -0.994523 0.104519 0
    outer loop
      vertex 12 0 4
      vertex 12 0 0
      vertex 11.9563 -0.415817 4
    endloop
  endfacet
  facet normal -0.951058 0.309012 0
    outer loop
      vertex 11.8271 -0.813461 0
      vertex 11.8271 -0.813461 4
      vertex 11.9563 -0.415817 0
    endloop
  endfacet
  facet normal -0.951058 0.309012 0
    outer loop
      vertex 11.9563 -0.415817 4
      vertex 11.9563 -0.415817 0
      vertex 11.8271 -0.813461 4
    endloop
  endfacet
  facet normal -0.865988 0.500065 0
    outer loop
      vertex 11.618 -1.17557 0
      vertex 11.618 -1.17557 4
      vertex 11.8271 -0.813461 0
    endloop
  endfacet
  facet normal -0.865988 0.500065 0
    outer loop
      vertex 11.8271 -0.813461 4
      vertex 11.8271 -0.813461 0
      vertex 11.618 -1.17557 4
    endloop
  endfacet
  facet normal -0.743222 0.669045 0
    outer loop
      vertex 11.3383 -1.48628 0
      vertex 11.3383 -1.48628 4
      vertex 11.618 -1.17557 0
    endloop
  endfacet
  facet normal -0.743222 0.669045 0
    outer loop
      vertex 11.618 -1.17557 4
      vertex 11.618 -1.17557 0
      vertex 11.3383 -1.48628 4
    endloop
  endfacet
  facet normal -0.587739 0.80905 0
    outer loop
      vertex 11 -1.73204 0
      vertex 11 -1.73204 4
      vertex 11.3383 -1.48628 0
    endloop
  endfacet
  facet normal -0.587739 0.80905 0
    outer loop
      vertex 11.3383 -1.48628 4
      vertex 11.3383 -1.48628 0
      vertex 11 -1.73204 4
    endloop
  endfacet
  facet normal -0.406702 0.913561 0
    outer loop
      vertex 10.618 -1.9021 0
      vertex 10.618 -1.9021 4
      vertex 11 -1.73204 0
    endloop
  endfacet
  facet normal -0.406702 0.913561 0
    outer loop
      vertex 11 -1.73204 4
      vertex 11 -1.73204 0
      vertex 10.618 -1.9021 4
    endloop
  endfacet
  facet normal -0.207899 0.97815 0
    outer loop
      vertex 10.209 -1.98903 0
      vertex 10.209 -1.98903 4
      vertex 10.618 -1.9021 0
    endloop
  endfacet
  facet normal -0.207899 0.97815 0
    outer loop
      vertex 10.618 -1.9021 4
      vertex 10.618 -1.9021 0
      vertex 10.209 -1.98903 4
    endloop
  endfacet
  facet normal 0 1 0
    outer loop
      vertex 9.79094 -1.98903 0
      vertex 9.79094 -1.98903 4
      vertex 10.209 -1.98903 0
    endloop
  endfacet
  facet normal 0 1 0
    outer loop
      vertex 10.209 -1.98903 4
      vertex 10.209 -1.98903 0
      vertex 9.79094 -1.98903 4
    endloop
  endfacet
  facet normal 0.207899 0.97815 -0
    outer loop
      vertex -10.618 -1.9021 0
      vertex -10.618 -1.9021 4
      vertex -10.209 -1.98903 0
    endloop
  endfacet
  facet normal 0.207899 0.97815 0
    outer loop
      vertex -10.209 -1.98903 4
      vertex -10.209 -1.98903 0
      vertex -10.618 -1.9021 4
    endloop
  endfacet
  facet normal 0.406702 0.913561 -0
    outer loop
      vertex -11 -1.73204 0
      vertex -11 -1.73204 4
      vertex -10.618 -1.9021 0
    endloop
  endfacet
  facet normal 0.406702 0.913561 0
    outer loop
      vertex -10.618 -1.9021 4
      vertex -10.618 -1.9021 0
      vertex -11 -1.73204 4
    endloop
  endfacet
  facet normal 0.587739 0.80905 -0
    outer loop
      vertex -11.3383 -1.48628 0
      vertex -11.3383 -1.48628 4
      vertex -11 -1.73204 0
    endloop
  endfacet
  facet normal 0.587739 0.80905 0
    outer loop
      vertex -11 -1.73204 4
      vertex -11 -1.73204 0
      vertex -11.3383 -1.48628 4
    endloop
  endfacet
  facet normal 0.743222 0.669045 -0
    outer loop
      vertex -11.618 -1.17557 0
      vertex -11.618 -1.17557 4
      vertex -11.3383 -1.48628 0
    endloop
  endfacet
  facet normal 0.743222 0.669045 0
    outer loop
      vertex -11.3383 -1.48628 4
      vertex -11.3383 -1.48628 0
      vertex -11.618 -1.17557 4
    endloop
  endfacet
  facet normal 0.865988 0.500065 -0
    outer loop
      vertex -11.8271 -0.813461 0
      vertex -11.8271 -0.813461 4
      vertex -11.618 -1.17557 0
    endloop
  endfacet
  facet normal 0.865988 0.500065 0
    outer loop
      vertex -11.618 -1.17557 4
      vertex -11.618 -1.17557 0
      vertex -11.8271 -0.813461 4
    endloop
  endfacet
  facet normal 0.951058 0.309012 -0
    outer loop
      vertex -11.9563 -0.415817 0
      vertex -11.9563 -0.415817 4
      vertex -11.8271 -0.813461 0
    endloop
  endfacet
  facet normal 0.951058 0.309012 0
    outer loop
      vertex -11.8271 -0.813461 4
      vertex -11.8271 -0.813461 0
      vertex -11.9563 -0.415817 4
    endloop
  endfacet
  facet normal 0.994523 0.104519 -0
    outer loop
      vertex -12 0 0
      vertex -12 0 4
      vertex -11.9563 -0.415817 0
    endloop
  endfacet
  facet normal 0.994523 0.104519 0
    outer loop
      vertex -11.9563 -0.415817 4
      vertex -11.9563 -0.415817 0
      vertex -12 0 4
    endloop
  endfacet
  facet normal 0.994523 -0.104519 0
    outer loop
      vertex -11.9563 0.415817 0
      vertex -11.9563 0.415817 4
      vertex -12 0 0
    endloop
  endfacet
  facet normal 0.994523 -0.104519 0
    outer loop
      vertex -12 0 4
      vertex -12 0 0
      vertex -11.9563 0.415817 4
    endloop
  endfacet
  facet normal 0.951058 -0.309012 0
    outer loop
      vertex -11.8271 0.813461 0
      vertex -11.8271 0.813461 4
      vertex -11.9563 0.415817 0
    endloop
  endfacet
  facet normal 0.951058 -0.309012 0
    outer loop
      vertex -11.9563 0.415817 4
      vertex -11.9563 0.415817 0
      vertex -11.8271 0.813461 4
    endloop
  endfacet
  facet normal 0.865988 -0.500065 0
    outer loop
      vertex -11.618 1.17557 0
      vertex -11.618 1.17557 4
      vertex -11.8271 0.813461 0
    endloop
  endfacet
  facet normal 0.865988 -0.500065 0
    outer loop
      vertex -11.8271 0.813461 4
      vertex -11.8271 0.813461 0
      vertex -11.618 1.17557 4
    endloop
  endfacet
  facet normal 0.743222 -0.669045 0
    outer loop
      vertex -11.3383 1.48628 0
      vertex -11.3383 1.48628 4
      vertex -11.618 1.17557 0
    endloop
  endfacet
  facet normal 0.743222 -0.669045 0
    outer loop
      vertex -11.618 1.17557 4
      vertex -11.618 1.17557 0
      vertex -11.3383 1.48628 4
    endloop
  endfacet
  facet normal 0.587739 -0.80905 0
    outer loop
      vertex -11 1.73204 0
      vertex -11 1.73204 4
      vertex -11.3383 1.48628 0
    endloop
  endfacet
  facet normal 0.587739 -0.80905 0
    outer loop
      vertex -11.3383 1.48628 4
      vertex -11.3383 1.48628 0
      vertex -11 1.73204 4
    endloop
  endfacet
  facet normal 0.406702 -0.913561 0
    outer loop
      vertex -10.618 1.9021 0
      vertex -10.618 1.9021 4
      vertex -11 1.73204 0
    endloop
  endfacet
  facet normal 0.406702 -0.913561 0
    outer loop
      vertex -11 1.73204 4
      vertex -11 1.73204 0
      vertex -10.618 1.9021 4
    endloop
  endfacet
  facet normal 0.207899 -0.97815 0
    outer loop
      vertex -10.209 1.98903 0
      vertex -10.209 1.98903 4
      vertex -10.618 1.9021 0
    endloop
  endfacet
  facet normal 0.207899 -0.97815 0
    outer loop
      vertex -10.618 1.9021 4
      vertex -10.618 1.9021 0
      vertex -10.209 1.98903 4
    endloop
  endfacet
  facet normal 0 -1 0
    outer loop
      vertex -9.79094 1.98903 0
      vertex -9.79094 1.98903 4
      vertex -10.209 1.98903 0
    endloop
  endfacet
  facet normal 0 -1 0
    outer loop
      vertex -10.209 1.98903 4
      vertex -10.209 1.98903 0
      vertex -9.79094 1.98903 4
    endloop
  endfacet
  facet normal -0.207909 -0.978148 0
    outer loop
      vertex -9.38196 1.9021 0
      vertex -9.38196 1.9021 4
      vertex -9.79094 1.98903 0
    endloop
  endfacet
  facet normal -0.207909 -0.978148 -0
    outer loop
      vertex -9.79094 1.98903 4
      vertex -9.79094 1.98903 0
      vertex -9.38196 1.9021 4
    endloop
  endfacet
  facet normal -0.406738 -0.913545 0
    outer loop
      vertex -9 1.73204 0
      vertex -9 1.73204 4
      vertex -9.38196 1.9021 0
    endloop
  endfacet
  facet normal -0.406738 -0.913545 -0
    outer loop
      vertex -9.38196 1.9021 4
      vertex -9.38196 1.9021 0
      vertex -9 1.73204 4
    endloop
  endfacet
  facet normal -0.587773 -0.809026 0
    outer loop
      vertex -8.66173 1.48628 0
      vertex -8.66173 1.48628 4
      vertex -9 1.73204 0
    endloop
  endfacet
  facet normal -0.587773 -0.809026 -0
    outer loop
      vertex -9 1.73204 4
      vertex -9 1.73204 0
      vertex -8.66173 1.48628 4
    endloop
  endfacet
  facet normal -0.743138 -0.669138 0
    outer loop
      vertex -8.38196 1.17557 0
      vertex -8.38196 1.17557 4
      vertex -8.66173 1.48628 0
    endloop
  endfacet
  facet normal -0.743138 -0.669138 -0
    outer loop
      vertex -8.66173 1.48628 4
      vertex -8.66173 1.48628 0
      vertex -8.38196 1.17557 4
    endloop
  endfacet
  facet normal -0.866029 -0.499993 0
    outer loop
      vertex -8.1729 0.813461 0
      vertex -8.1729 0.813461 4
      vertex -8.38196 1.17557 0
    endloop
  endfacet
  facet normal -0.866029 -0.499993 -0
    outer loop
      vertex -8.38196 1.17557 4
      vertex -8.38196 1.17557 0
      vertex -8.1729 0.813461 4
    endloop
  endfacet
  facet normal -0.951058 -0.309012 0
    outer loop
      vertex -8.0437 0.415817 0
      vertex -8.0437 0.415817 4
      vertex -8.1729 0.813461 0
    endloop
  endfacet
  facet normal -0.951058 -0.309012 -0
    outer loop
      vertex -8.1729 0.813461 4
      vertex -8.1729 0.813461 0
      vertex -8.0437 0.415817 4
    endloop
  endfacet
  facet normal -0.994523 -0.104519 0
    outer loop
      vertex -8 0 0
      vertex -8 0 4
      vertex -8.0437 0.415817 0
    endloop
  endfacet
  facet normal -0.994523 -0.104519 -0
    outer loop
      vertex -8.0437 0.415817 4
      vertex -8.0437 0.415817 0
      vertex -8 0 4
    endloop
  endfacet
  facet normal -0.994523 0.104519 0
    outer loop
      vertex -8.0437 -0.415817 0
      vertex -8.0437 -0.415817 4
      vertex -8 0 0
    endloop
  endfacet
  facet normal -0.994523 0.104519 0
    outer loop
      vertex -8 0 4
      vertex -8 0 0
      vertex -8.0437 -0.415817 4
    endloop
  endfacet
  facet normal -0.951058 0.309012 0
    outer loop
      vertex -8.1729 -0.813461 0
      vertex -8.1729 -0.813461 4
      vertex -8.0437 -0.415817 0
    endloop
  endfacet
  facet normal -0.951058 0.309012 0
    outer loop
      vertex -8.0437 -0.415817 4
      vertex -8.0437 -0.415817 0
      vertex -8.1729 -0.813461 4
    endloop
  endfacet
  facet normal -0.866029 0.499993 0
    outer loop
      vertex -8.38196 -1.17557 0
      vertex -8.38196 -1.17557 4
      vertex -8.1729 -0.813461 0
    endloop
  endfacet
  facet normal -0.866029 0.499993 0
    outer loop
      vertex -8.1729 -0.813461 4
      vertex -8.1729 -0.813461 0
      vertex -8.38196 -1.17557 4
    endloop
  endfacet
  facet normal -0.743138 0.669138 0
    outer loop
      vertex -8.66173 -1.48628 0
      vertex -8.66173 -1.48628 4
      vertex -8.38196 -1.17557 0
    endloop
  endfacet
  facet normal -0.743138 0.669138 0
    outer loop
      vertex -8.38196 -1.17557 4
      vertex -8.38196 -1.17557 0
      vertex -8.66173 -1.48628 4
    endloop
  endfacet
  facet normal -0.587773 0.809026 0
    outer loop
      vertex -9 -1.73204 0
      vertex -9 -1.73204 4
      vertex -8.66173 -1.48628 0
    endloop
  endfacet
  facet normal -0.587773 0.809026 0
    outer loop
      vertex -8.66173 -1.48628 4
      vertex -8.66173 -1.48628 0
      vertex -9 -1.73204 4
    endloop
  endfacet
  facet normal -0.406738 0.913545 0
    outer loop
      vertex -9.38196 -1.9021 0
      vertex -9.38196 -1.9021 4
      vertex -9 -1.73204 0
    endloop
  endfacet
  facet normal -0.406738 0.913545 0
    outer loop
      vertex -9 -1.73204 4
      vertex -9 -1.73204 0
      vertex -9.38196 -1.9021 4
    endloop
  endfacet
  facet normal -0.207909 0.978148 0
    outer loop
      vertex -9.79094 -1.98903 0
      vertex -9.79094 -1.98903 4
      vertex -9.38196 -1.9021 0
    endloop
  endfacet
  facet normal -0.207909 0.978148 0
    outer loop
      vertex -9.38196 -1.9021 4
      vertex -9.38196 -1.9021 0
      vertex -9.79094 -1.98903 4
    endloop
  endfacet
  facet normal 0 1 0
    outer loop
      vertex -10.209 -1.98903 0
      vertex -10.209 -1.98903 4
      vertex -9.79094 -1.98903 0
    endloop
  endfacet
  facet normal 0 1 0
    outer loop
      vertex -9.79094 -1.98903 4
      vertex -9.79094 -1.98903 0
      vertex -10.209 -1.98903 4
    endloop
  endfacet
endsolid OpenSCAD_Model
